<svg class="turkey-svg" viewBox="0 0 1000 422" xmlns="http://www.w3.org/2000/svg">
    <path class="turkey-outline" d="M889.7 82.2l-0.2 1.5 0.3 2 0.8 1.8 0.9 0.8 2 0.3 2.1 1.1 1.9 1.5 1.4 1.9 0.6 1.2 0.2 1.2 0.1 1.3 0.3 1.4 0.4 1.3 2 3.1 0.5 1.2 0.1 1 0.3 4.4-0.2 0.5-1 1.8-0.2 0.3 0.3 1.5-2 2.3-0.6 1.3 0 1.5-0.3-0.2-0.2-0.1-0.2 0-0.3-0.1 0.2 0.2 0.1 0.2 0.1 0.5-1.1 0.1-1.1 0.7-1.6 1.9 0.2 0.9 1 1.1 1.9 1.6 0 0.5 0 0.1-0.7 2.4-0.4 0.7-0.3 1 0.4 1 1.3 1.2 2.1 2.8 0.7 1.5 0.1 0.2-0.9 0.6 0.5 1.1 1.5 1.9 0.3 0.7-0.5 0.8-2.1 0.4-0.7 0.6 0.6 1.8 2.2 1.2 4.4 1.3 5.2 2.9 5.7 0.9 0.7-0.2 1.7-1.2 1-0.3 0.5 0.2 0.6 0.6 0.4 0.1 0.5-0.1 0.9-0.3 1.4-0.1 2.8-0.8 1.6 0 1.8 0.5 2.6 1.6 4 2.3 2.7 2.4 1.2 1.4 0.6 0.9 0.2 0.9 0.2 0.5 0.4 0.4 0.7 0.6 0.1 0.6 0.1 0.7 0.1 0.3 0.7-0.4 1.7 2 0.9 0.6 0.5-0.1 0.3 0.1 0.2 0.2 0.3 0.5 2.9 3.8 0.7 1.3 0.5 0.7 0.5 2.4 0.5 0.7-3.8-2.8-0.9-0.8-2.9-1.3-0.6-0.7-1.3-2-0.7-0.5-1.2 0.4-5.1 4.1-0.2 0.7 0.3 2-0.1 0.8-0.3 0.8-1.6 3.2-0.2 0.8-0.1 1 0.1 0.9 0.1 0.8 0 0.7-0.5 0.7-0.2 1.4 0.2 1.2-0.1 1.1-0.8 1.2-0.9 0.7-2.4 1.1-1.1 0.3-1.2-0.1-3.3-1.7-1.1-0.1-2.6 0.7-1.1 0.1-1-0.1-0.8 0-0.7 0.2-0.9 0.7-0.6 0.7 0.3 0.7 1.3 1.5 0.2 0.6 0.3 1.3 0.5 1.2 0 0.5-0.1 0.4 0 0.6 0.2 0.5 0.5 1.2 0.1 0.5-0.3 1.1 0 0.6 1.2 0.9 2.2 1.1 1.8 1.3 0.4 1.5-1 1.9-0.2 1 0.4 2.4-0.4 0.7-0.8 0.6-0.7 1.2 0.3 0.4 0.1 0.4 0.2 1 0.3 0.4 0.5 0.3 0.3 0.4 0.1 0.6-0.1 0.5 0.2 0.5 0.2 0.4 0.4 1.4 0.7 0.9 0.8 0.8 2.5 1.2 0.2 1.8-1.3 4.4-0.2 1.2 0.1 0.7 0.3 0.8 0.2 1.1-0.2 0.4-0.4 0.4-0.2 0.4 0.6 0.3 0.9 0.3 0.4 0.4 0.3 1 0 1.3-0.2 2.4 0.4 3.1 0 1-0.6 2.5 0 0.7 0.1 1.5 0 0.6-0.2 1 0.2 0.5 0.4 0.3 0.7 0.3 2.4 0.5 1.5-0.9 0.6-0.2 0.8 0.3 0.7 0.6 0.5 0.8 0.4 1 0 0.9-1 1.6-1.8 1.3-1.3 1.5 0.2 2.9-0.2 1.2-0.4 0.9-0.3 0.5-0.9 0.3-0.3 0.4-0.1 0.5 0.4 1.1-0.3 0.4-0.9 0.4-0.6 0.5-0.5 0.8-0.4 1.3-0.4 0.9-1.1 1.3-0.5 0.9-0.3 0.8 0 0.7 0.2 0.9 0 0.8-0.4 0.6-0.5 0.6-0.2 0.5 0.9 1.3 1.6 0.3 3.1-0.4 0.6 0.2 1.7 0.8 0.5 0.4 0.3 0.5 0.1 0.7 0.3 0.8 0.5 0.6 0.4 0.2 0.3-0.1 0.4 0.3 0 0.3-0.2 0.9 0 0.4 0.3 0.7 0.7 0 0.8-0.2 0.6-0.4 1.3-0.1 1.3 0.6 1.2 1 1.7 2.2 0.1 0.5-0.4 0.8-1.7 1.3-0.4 0.6-0.2 1.8 1 1.1 1 0.8 0.2 1-0.4 1.2-0.3 1.5-0.1 1.5 0.2 1.2 0.2 1-0.6 1.8 0.3 1 0.6 0.3 1.8 0.2 0.7 0.6 0.7 1.7 0.4 0.5 1.8-0.3 0.4 0.5 0.3 0.9 0.4 0.8 2.7 1.8 1.1 1.2-0.2 2-0.5 0.7-0.7 0.4-0.6 0.5-0.3 1 0.2 1.2 0.4 1 0.3 1.1-0.3 1.1-0.6-1-0.9-0.5-5-0.7-0.9 0-1.5 0.7-1.9 1.4-1.7 1.6-1.1 1.5-1.2 0.9-1.2 0.7-4.1 1.3-0.4 0.7-0.1 0.9-0.8 1.3-0.4 1-0.5 0.4-0.6 0.1-1.9-0.5-0.5-0.4-0.3-0.6-1.9-4.3-0.3-1.3 0-1.2 0.4-1.2 0.8-1.1 0.6-0.3 0.6-0.1 0.4-0.2 0.4-0.7 0.1-0.6-0.1-0.8-0.2-1.3-0.4-1.3-0.6-1.1-0.8-0.8-1-0.7-4.6-1.9-0.9-0.1-1.6-0.3-2.1 0.3-1.8 1.5-1.4 2.1-1.4 1.7-2.6 0.4-0.8 0.9-0.6 0.2-0.4-0.3-1-1-0.5-0.3-1.1-0.3-1.2-0.1-4.9 0.3-1.1-0.1-1.2-0.5-0.9-0.7-0.6-0.1-0.6 0.1-1.2 0.5-0.6 0.1-0.8-0.4-2.2-1.8-1.9-1-0.6-0.5-1.3-0.9-0.6-0.1-0.8 0.1-0.5 0.2-0.4 0.4-0.4 0.1-0.4-0.2-6.2-3.3-0.8-0.3-1.5 0.2-1.9 0.5-1.8 0.8-1.2 0.9-2.1 0.7-1.9-0.3-3.9-1.3-0.4-0.3-0.2-1-0.4-0.4-0.6 0-2.4 1-0.3 0.2-0.3 0.5-0.1 0.4 0 0.4-0.2 0.5-6 8.7-0.5 1.6-0.8 0.4-4 0.7-2.8 0.9-2.1 0.2 0-1.7-0.1-0.8-0.4-0.4-0.5-0.7 0.8-3.4-0.3-0.7-1.6-1.3-0.2-0.3-0.3-0.6-0.3-0.1-0.3 0.2-0.3 0.4-0.3 0.1-1.4-0.7-0.7-0.1 0-0.3 0.1-0.6-0.1-0.7-0.5-0.6-0.9 0.7-0.7 0.4-2.4 3.2-3.5 3.3-2.1 1.3-5.4 1.3-19.8 4.7-13.2 0.6-1-0.3-2.1-0.9-11.4-2.2-8.9 1.3-2.3 0.9-6.4 3.5-2.1 0.7-1.1 0-1.1 0.2-1 0.4-0.9 0.6-6.3 4.2-3.4 2.3-1.8 0.9-1.8 0.3-1.7 0.6-4.7 2.8-10.2 3.9-15.3 2.9-9.6 1.9-2.6 0.1-7.3-2.5-2.5 0.2-1 0.3-7.7 0.3-3.4-0.4-2.9-1.5-1.3-1.5-5.1-5.3-2.3-1.3-9-2.7-3.2-0.4-1.6 0.2-3.2 1.2-4.6 3-0.8 0.5-1.4 0.4-7.6 3.5-7.8 1.7-2.9 1.2-7 4.6-2-0.1-7.7-1.4-1.1 0.1-3 0.8-0.9-0.1-0.7-0.3-0.8 0-0.9 0.4-0.8 0.7-0.3 0.6-0.5 0.1-0.9-0.5-0.9-0.8-0.2-0.7 0.4-1.9 0-1.2-0.4-0.8-1.4-1.3-0.8-0.7-0.9-0.6-0.9-0.3-3-0.2-8.8-3.1-0.5-0.1-0.4 0.1 0.2 1.4-0.6 1.2-0.7 1-0.6 1.2-0.2 1.3-0.1 1.1-0.1 1.2-0.6 1.4-0.6 2.5 0 2.6-0.2 2.6-1.4 2.2-0.3 0.9 0.2 1 0.9 3.2 0.4 0.3 0.7 0.3 0.2 0.2 0.3 0.4 0.1 0.4-0.1 0.5-0.3 0.9-0.2 0.5 0.4 0.4 1.6 0.2 0.8 0.3 0.5 0.6 0.5 0.8 0.3 1 0.2 0.9 0 1.3-0.2 0.5-3.4 0.6-0.9 0-3.6-0.6-0.9 0.2-0.5 0.2-0.2 0.3 0 0.5-0.3 0.3-0.4 0.2-1.3-0.2-0.7-0.2-0.6-0.4-0.6-0.7 0.7 0.8-0.1 0.5-0.4 0.4-0.3 0.5 0 0.8-0.2 8.5 0.1 1.7-1 0.3-1.9-0.7-0.9 0.4-0.4 2.1-0.8 0.1-1.1-0.3-1.5 0.6-1.1 1.7-0.3 4.1-0.5 1.7 0-0.8 0.1-2.8-2-1.4-0.7-1.5 0-0.7-0.2-0.5-0.5-0.1-0.7 0.1-0.7 0-0.8-0.6-0.7-0.9 0.2-1 0.3-0.9 0.2-0.5-0.1 0.6-0.8 2-3.6 0.5-0.4 0-1.1-1.3-4-3.4-5.6-0.6-0.8-0.6-1-0.5-1.8-0.7-0.8-0.8-0.7-0.5-0.7-0.6-1.4 0.1-0.9 1.3-1.9 0.5-0.3 0.5-0.2 0.5 0 0.3-0.2 0.5-1.5 0.4-0.4 0.8-0.4 0.5-0.4 0.2-0.5 0.3-1.3 0.5-0.3 1.9-0.7 0.4-0.2 2.2-2.8 0.5-0.1 5.1-3.2 0.7-0.2 0.5-0.5 0.6-1 0.5-1.2 0.2-0.9 0-0.8-0.2-0.6-0.3-0.5-0.2-0.6 0-3.7-0.1-1-0.5-1-2.8-4-1.6-1.6-1.8-1.3-1.8-0.5-1.7 0.7-1.6 1.4-2.7 3.4-0.7 0.5-0.8 0.2-0.4 0.4-1.6 1.8-0.7 0.6-1.8 0.4-4 0.2-1.7 0.7-0.6 0.5-0.5 1.1-0.5 0.4 0.2-0.4-0.4-0.2 0.4 0.9 0.7-0.9 0.2 0.1 0.2 0.2 0.1 0.3-0.3-0.4 0-0.4-0.3-0.4 0.7-0.4 0.3 0.3 0.2 0.6 0.5-0.1 0.5-0.4 0.5-0.2 0.6 0.3-2.8 1.3-1.3 1-0.8 1.4 0.1 0.6 0.7-0.4 2.1-2.5 0.6-0.4 0.8-0.2-1.8 1.8-0.4 1.1-0.3 0.5 0 0.8-0.1 0.7-0.4 0.2-0.7 0.6-0.5 0.1-1.5 0.1-0.6-0.1-1.5-1.4-0.4-0.2-0.7 0.2-0.4 0.3-0.1 0.6 0.4 0.1 1.7 0.7-2.1-0.6-2-0.2-1.1 0.6-0.3 0.3-0.2 0.4-0.4 0.3-1 0.3-1.2 1.1-0.5-0.3-0.8-1.1-0.5-0.3-0.7-0.2-12-7.3-1.3-0.4-1.5-1.1-1-0.3-0.7-0.1-0.6 0-0.8 0.2-0.6 0.3 0.1-0.3 0.3-0.9-0.7-0.4-2-2.1-3.9-2-1.4-0.8-2 0.5-3.2 1.5-1.4 0.2-1.4 0.9-0.5 1.1-1.5 0.8-4.1 3.8-5.2 3.2-1.4 1.2-4.1 5.3-0.4 0.9-0.5 0.3-1 0.5-1.6 1.7-1.7 1-0.1 1.5 0.2 1.9-0.1 1.6-0.9 0.8-1.5 0.3-1.3 0.4-0.5 1.3 0.2-0.2-0.1 0.4-0.9 1.2-0.4 0.7-0.2 0.9-0.3 0.4-0.8 0 0-0.4 0.4-1-0.2-1.7-0.7-1.5-1-0.6-0.6-0.4-0.6-0.2-0.7 0.6-0.9 1.4-0.4 0.6-0.8 0.2 0.1 0.2-0.5 0.5-0.7 1.3-0.6 0.2-1.7 0.7-0.3 0.3-1.5 1.6-0.2 0.6-0.3 1.6-0.3 0.4-0.1-0.4-1.2-1.8-0.2-0.9-0.6 0.1-0.7 0.3-1.1 1-1.1 1.4-1 1-1-0.2 0.6-0.3 0-0.5-1.1-0.1-2-0.5-1 0.2-1.7 0.9-0.7 0.2-1.8-0.7-1-0.1-0.9 1.1-1 0.1-2.2-0.1-1.4 0.4-0.6-0.2-1-0.5-0.5-0.1-1.1 0.3-0.6 0.7-0.4 1-0.7 0.8-0.5 0.4-0.5-0.2-0.6-0.1-1.5 0.1-3.1-0.8-0.9 0-3.1 1.6-0.4 0.7-2.6 1.9-2-0.1-4.3-1-1.8-0.9-2.9-1.9-1.7-0.2-0.8-0.2-3.7-2.1-0.5-0.5-0.3-0.7-0.8-0.4-1-0.3-0.8-0.4-2.2-3-0.2-0.3-0.9-0.6-0.2-0.3-0.2-1.7-0.1-0.5-1.1-1.6-2.9-2.6-0.6-1.6-0.2-0.4-0.5-0.8-0.5-0.9-0.6-0.3-0.8-1.8-0.6-1-0.7-0.4-2.9-3-0.5 0-0.5-0.2-0.4-0.2-0.3-0.3-0.2-0.2-1.9 0.1-1-0.1-0.4-0.6-0.5-0.5-1.3-0.5-1.3-0.2-0.8 0.2-0.5-0.4-1.8-0.8-0.9-1.3-0.6-0.6-0.6 0.1-1-0.2-3.6-1.6-0.8-0.7-0.7-0.8-9-4-1.3-0.2-0.1-1.5-1.7-1-19.1-2.9-7.8 0.5-1.3-0.4-1-0.6-1.9-1.5-2.8 1.9-1.2 1.3-0.7 1.8-0.6 1.1 0 1.9-0.3 1.9 0.1 1 0.5 0.9 0 0.4-0.4 0.5-0.3 0.5-0.2 0.6-0.1 0.8 0.1 1.1 0.3 0.6 0.3 0.5 0.3 0.7 0.3-0.4-0.1 1.2-0.7 2.1 0.2 0.7-1.7 1.4-0.7 0.9-0.5 2.1-1.1 1.6 0.1 0.5-0.7 1 0.1 1 0.5 0.8 0.7 0.4-0.3 0.9 1.2 0.4-0.7 0.9-1.3 1.1-0.5 1.2 0.3 0.1 0.1 0.1 0.4-0.5 0.5-0.7 0.5-0.6 0.5-0.5 1.4-0.6 0.7-1.4 1.2 0.1-2.5-0.2-1-0.6-0.5-1.1 0.3-5-2.3-1 0-3.6 0.6-0.4 0.5-0.2 0.9 0 1.2-0.1-0.4-0.3-0.8-0.3 1.1 0 0.5-0.7-0.4 0.1 0.4-0.1 0.4-1.7-0.4-0.4-0.2-0.4-0.3-0.4-0.2-0.6 0.3 1 0 0 0.4-3.3 1.7-0.7-0.1-0.5 0.4-0.6-0.1-0.5-0.2-0.6-0.1-0.5 0.1-0.6 0.6-0.8 0.5-1.8 0.4-0.7 0.3-0.5 0-1.2 0.3 0 0.4 1 0-0.6 0.7-0.7 0.5-0.8 0.3-0.8 0.2-0.6 0.1-0.2 0.3-0.6-0.6-0.6-0.2-0.5 0.1-0.6 0.2 0 0.2-0.2 0.2-0.5 0.1-0.8 1.1-0.2-1.2-1.6-0.8-0.5-1.2 0.7-0.3-0.1-0.6-0.4-0.2-2.4 0.3 0.4-0.3 0.5-0.1 0.5-0.1 0.5 0-1-0.4-3.8 0-1.3-0.3-3-1.7-0.5 0.6-0.3-0.6-0.1-1.6-0.5 0.2-0.1 0.2-0.2 0.3-0.3 0.3-0.1 0.4-0.2 0.4-0.4 0.2-0.3-0.6-0.3-0.4-0.3 0.4-2.9-2.7-0.4-0.9-0.6-0.7-2.9-1-0.8-1-0.6 0.5-0.2-0.8 0.2-0.2 0-0.5-1.3 0-0.5-0.4-0.3-0.1-0.5 0 0.2-0.5 0.4-0.4 0.5-0.2 0.5-0.1-0.1-0.1-0.2-0.1 0.3-1.1-0.3-1-0.6-0.7-0.7-0.4 0-0.4 0.6-0.5 0.3-0.2 0.4-0.1 0-0.5-0.2-2-0.2-1-0.6 0.3-0.6-0.8-2.3 0.9-1-0.1 0.9-0.3 0.2-0.5-0.3-0.8-0.5-0.9 0.5-1.1 0.3-0.6 0.7 0.6 0.5-0.5 0.7-0.9 0.7-0.3 0 0.3-0.3 0.7 0.4 0.2 0.6-0.2 0.3-0.4-0.2-0.6-0.2-0.5-0.3-0.5-0.3-0.3-3-2.1-3.7-1.6-0.4-0.5-0.4-0.9-0.8 0.6-0.8 1.1-0.7 0.6 0.4 0 0 0.4-0.9 0.1-0.4 0.2-0.1 0.5 0.1 0.5 0 0.5-0.6 0.1 0.2 0.2 0.2 0.2-0.3 0.4 0.5 0.5 0.2 0.3 0.3 0-0.6 0.3-0.5 0.1-0.5-0.3-0.9 0.8 0.8-0.3 1-0.8 0.9-0.7 0.6 0.3 0.6-0.5 0.3-0.8 0.1-0.6-0.2-0.5-0.5 0-0.6 0.4-0.4 0.7-0.1 0-0.5-0.8-0.4-0.5-0.2-0.8 0.3-0.2-1.6-1.7-1.2-2.2-0.4-1.4 0.7-0.3 0-0.2-1.1-0.6-0.4-0.6 0.2-0.6 0.9-0.3-0.4-0.6-1.6 0.4-0.8 0.2-1.2-0.1-1.1-0.5-0.6 0 0 0.1-0.1-0.1-0.2-0.1-0.1 0-0.2 0.2-0.3-0.3 0.5-0.1 0.3 0 0.4-0.2 0-0.1-0.4-0.6-0.7-1.4-0.3-1.1 0.6 0.2 1.5-0.5-0.4-0.5-0.1-0.6-0.2 0.7-0.4 0-0.4-1.1 0-0.7-0.2-0.3-0.6-0.2-1.2 0.3 0 0.1-0.2-0.1-0.4-0.1-0.7-0.2-0.3 0.6-0.5 0.5-0.9 0.3-1.4 0.1-0.5 0.4 0.3 0.4 0.4 0.3 0.3 0 0.4-0.1 0.4 0 0.5 0.5-0.5 0.9-0.4 0.8-0.5 0.7-0.9 0-2.4-1.3-0.3 0 0.2 0.9 0.1 0.3-1.3 0.1-0.5-0.2-0.2-0.5 0.5-0.3 1.3-0.2 0-0.4-0.6-0.4-0.7-0.6-0.7-0.4-0.8 0.4-0.6 1-0.3 0.9 0.1 0.9 0.7 0.6-0.3 1.3 1.9 1.4 0.3 1.4-0.5-0.4-0.8-0.3-0.7 0.2-0.3 0.9-0.3 0.1-0.2 0.2 0.3 0.3-2.4 0.9-1 0.7-0.8 1.3-0.7 1.3-0.9 1.4-1.1 0.9-1.2-0.4 0.1 0.2 0.1 0.4 0.1 0.2-0.6 0.3-0.4 0-0.4-0.2-0.5 0.8-0.6 0.2-0.6-0.4-0.6-0.6 0.1-0.4 0.1-0.2-0.2-0.2-0.2-0.2 3.6 0 0.9-0.4 0.5-0.6 0.5-0.7 0.7-0.7-0.7-0.8-0.9 0.8-0.4 0.3 0.5-0.5 0.1-0.8-0.1-0.7-0.5-0.5-0.5-0.3 0 0.7-0.3 0.3-0.5 0-0.5-0.3-0.4-0.2-0.4 0.2-0.5 0-0.5-0.2-0.6 0.3-0.2 1.7-0.4-0.4-0.4 1 0.1 0.3-0.1 0.3-0.2 0.2-0.3 0.2 1.8-0.1 0.5-0.3-0.2 0.9 0.7 0.1 0.7-0.6 0.1-0.8-0.5-0.4-0.9-0.1-0.3-0.3 0.1-0.4 0.4-0.4 0.5-0.4 0.3-0.5 0.2 0.4 0.2 0.3 0.6 0.6-0.2-1.1-0.3-0.5-0.5-0.1-0.6 0-0.4 0.3-0.8 1.3-1 0.7-0.4-0.1-0.2-0.6-0.7 0.7-1.9 0.6-0.7 0-0.3-0.8-0.4 0.2-0.6 0.6-0.7 0.4-0.2-0.8-0.4 0-0.3 0.5-0.4 0.3-0.3-0.2-0.3-0.5-0.3-0.1-0.4 0.8-0.3 0-0.6-0.5-0.8-0.5-1-0.2-0.9 0.4-0.5 0.2-0.6 0-0.6-0.2-0.7 0-0.8 0.2-1 1.3-0.7 0.5 0 0.4 0.2 0.5-0.7 1.9-0.1 1.3-1.6-0.8-0.3-0.8-0.2-0.9 0.1-0.7 0.2-0.5 0-0.2-0.7-3.3 1.2-0.2 0.4-0.2 0.3-0.2 0.2-0.6-0.5-0.4-0.2-1.1-0.2-0.6 0.2-0.1-0.7-0.4-0.4-0.5 0-0.6 0.3-0.2 0-0.1-0.1 0.2-0.3 0-0.4-0.2-0.3-0.4-0.2 0-0.4 0.6 0.3 0.8 0.2 0.8 0 0.6-0.3 0.4-0.6 0.2-1 0.6-0.6 0.5-0.4 0.4-0.1 1.2 0.1 3.5-0.6 1.7 0.2 0.9-0.3 0.2-0.7 0.1-0.8 0.2-0.7 1.1-0.3 2.2 1.4 0.6-0.3 0.8 0.4 0.6 0 0.7-0.1 0.5 0.1 1.2-1.1 0.7-0.4 4.1-0.1 0.5-0.2 0.3 0.4 0.8 0.3 1 0.3 0.9 0 1.6-0.2 0.8 0.3 0.8 0.7 0.3-0.3 0.9-0.7-0.3-0.7-0.5-0.3-0.7-0.2-0.8 0 0.3-0.4 0.4 0.2 0.1-0.4-0.3-0.6-0.5-0.5 0.1-0.1 0.2-0.1 0.4 0.2 0.3-0.2 0.5-0.3 0.5-0.2-1-1-0.4-0.6-0.3-0.5 0.7 0.4 0.3-0.4-0.3-0.2-0.1-0.2-0.2-0.2 0.4 0 0.8-0.1 0.5 0.1-1 0 0-0.4 1.1 0 0.5 0.1 0.3 0.3 0.3-0.3 0.3-0.1 0.2 0.1 0.2 0.3 0.3 0 0.5-0.3 1.1 0.5 0.4-0.2 0.3 0 0.1 0.4 0.3 0.8 0.1-0.3-0.1-0.3 0.1-0.3 0-0.2-0.2-0.2-0.3-0.1 0-0.4 0.4-0.1 0.4 0.1 0.3 0.1 0.2 0.3 1-1.6 0.3-0.4 0-0.5-0.6 0 0.3-0.6 0.8 0.6 0.7 0.2 0.4-0.4-0.3-0.8 2.6-1 1.4-0.4-0.4-0.5-0.3-0.2-0.5-0.2-6.2 1-2.3-0.1-0.9 0.2 0 0.4-0.8-0.4-5-0.8-0.5 0.1-0.6 0.6-0.6 0.1-0.5-0.1-1.4-0.3-1.2 0.1-3.9 1.3-0.5-0.2 0 0.2-0.3 0.6-0.4-0.1-0.6 0-0.5 0.2-1-0.7-1.5 0-1.5 0.6-0.9 0.9-0.9-0.5-1.3-0.5-1.1 0.1-0.3 1.4-1.1-0.9-0.5-0.2-0.7-0.2-1.4 0.2-0.5-0.2-0.5-0.4-0.8-1.3-0.3-0.3-0.8 0-0.7 0.7-0.3-0.5 0.1-0.2-0.3 0-0.1 0.6-0.6 1.4-0.1-0.3-0.1-0.1 0.1-0.3 0-0.1-0.1 0-0.1-0.2 0.2-0.2 0.1-0.1-0.2-0.4-0.4 0.3-1.3 0.3-0.6 0.4 0.2 0.6-0.3 0.7-0.5 0.5-0.7 0.3 0.2 0.5 0.2 0.3-0.5-0.2-0.2 0.2-0.3-0.5-0.9 0.2-0.5-0.9-0.2-1.3-0.1-1-0.2-1-0.4-0.8-0.2-0.8 0.5-1.3 0.4 0 0.8-0.3 0.8-0.6 0.6-0.7-0.3-0.3-0.4 0.1-0.5 0.3-0.2-0.2-0.1-0.4 0.4 0.3 0.5-0.6 1.5 0.5 0.9-0.2-0.2-0.7 0.5 0.2 0.4 0.3 0.1 0.5 0 0.7 0.3 0 0.3-0.6 0.3-0.5 0.4-0.1 0.3 0.4 0 1 0.2 0.3 0 0.5 0 0.4 0.3 0.3 0.2 0.3 0.1 0.7-0.2 0.7 1.3 0.7 0.4 0.7-0.1 1.2-0.9 1-0.5 0.5-0.3 1.2 0 0.5-0.3-0.7 0.1-0.2 0.2-0.4-1.9-0.3-1-0.6-0.4 0-0.4 2.2-0.5 0.6 0.1-0.5 1.2 0.4-0.3 0.7-0.8-0.7-0.3-0.4 0-1.2 0.1-0.2 0.6-0.5 0.3-0.3 0.1-0.8 0.1-0.4-0.6-0.4-0.4-0.1-0.2 0.2 0 0.3-0.1 0.1-1.1-0.1-0.6 0.2-0.2 0.5-0.3 0.9-0.6 0.8-0.7 0.4-0.7-0.3 0.8-0.7 0.1-0.8-0.5-0.5-1.1 0-0.1 0.2-0.5 0.5-0.4 0.2-0.3-0.3 0.1-0.6 0.4-0.5 0.8-1.1 0 0.2-0.6 0.1-0.9-0.6-0.9-0.3 0 1.6-1.1 0.6-1.3-0.2-1-0.8-0.4-1.3 0.4-1.2 0.9-1 1.1-0.5-0.6-0.9-0.9-0.5-0.2 0.1-0.8 0 0.4-0.4 0.8-0.2 0.8-0.5 0.5-1.2-0.1 0 0.5 0.7 0.5-0.3 0.2-2.8 0.2-0.6 0.5-0.3-0.4-0.4-0.3-0.3 0-0.3 0.3-0.1-0.5-0.2-0.1-0.4 0.2-0.1 0.1-0.2-0.4-0.1 0.5-0.6 0.3-0.6 0.1-0.6-0.2-0.7 0.7-0.3 0.3-0.1 0-0.4-0.4-1.2 0.2-2.7-0.8 0.3-0.3-0.4 0-0.4 0.3-0.3 0.4 0.2-1 0.3-0.9 0.1-0.8-0.3-1 0.2-0.3-0.2-0.3-0.2-0.3 0.2-0.7 0.7 0.5 0.5-1 0.1-1.3-0.2-0.7-0.7-0.2-2.7-1.8-4.1-1.2-1.8-0.9 0.4-1.2 0.9-0.3 3.1 0.3 1.1-0.2 4.1-1.5 1.1-1.4 0.3-0.9 0.2-1.4 0.1-1.3-0.1-0.7-0.4-0.6-0.4-0.5-0.3-0.7 0.1-1.1 0.6-0.5 0.2-0.4 0.1-0.6 0-0.5-0.2-0.5 0.7-0.6-0.4-1.4-1.3-2.2-1.2 0.4-1.7 0-1.8-0.3-1.1-0.4-0.3-0.4-0.2-0.4-0.5-0.1-0.4-0.1-0.2-0.2-0.1-0.3-0.2-1-0.4-0.3-1.4-0.2-2.4-0.9-1.3-0.2-1.5 0.3-0.8 0.4-0.3 0.2-0.1 0.4-0.2 0.5-0.4 0.2-0.4-0.3-1.1-2.2-0.1-0.8-0.2-0.9-0.3-0.8-0.5-0.8-1-1.1-0.5-0.6-0.8 0.4-0.2-0.7 0.1-1.8-0.7-0.6-0.7 0.1-0.8 0.3-0.9 0.2-3 0-0.5 0.2-0.6 3.9 0 0.8-0.2 0.6-0.6 0.2-0.3-0.2-0.6-1.5-0.4-0.7 0 1.2-0.5 0.1-0.7-0.5-0.9-1-0.3-0.5-0.1-0.6 0.2-0.8-1.3 0.3-1.2-1-1.2-1.3-1.1-0.5 0.2 0.9 0.1 0.3-0.3 0-0.3-0.4-1-1 0.1-0.6 0-0.5-0.2-0.6-0.4 0-0.3 1.6-1 0.4-1.2-0.4-1.6-1.3-0.4-0.3-2.5-0.7-0.1-0.4 0.3-1 1.2 0.6 0.6-0.8 0.4-1.1 1.1-0.3 0-0.5-0.9-0.6-0.2-1.1 0.4-0.6 0.7 0.7 0 0.4 0.6 0.2 0.1 0.3 0.2 0.2 0 0.4 0 0.4 0.1 0.3 0.1 0.3 0.3 0.2 0.6 0 0.7-0.1 0.4-0.4-0.5-0.7 0-0.5 0.8 0.5 0.6 0 0.5-0.3 1.2-0.8 0.4-0.2 0.6-0.6 0.1-1.2-0.4-1.2-0.8-0.7 0-0.5 1.2 0.6 0.6 0.6 0.4 0 0.7-1.6-0.7-0.4-1.1-1.1-1-0.3-0.6-0.6-0.5-0.1-0.4 0.3-0.4 0.8-0.3 0.2-0.9-0.1-0.2 0.4-0.6 0.3-1.2-0.2-0.7-1.4-2.2 0.3 0.4-0.7-0.6-1.8-0.1-0.4 0-0.4-0.5-2.3 0-0.9 0.1-0.9 0.3-0.7 0.4-0.2 0.7-0.2 1.1-0.5 0.5-0.1 1.3 0.1 1.2 0.3 1 0.5 0.9 0.7 1.6 1.8 0.7 1.1 0.3 0.9 1.1 1.8 1.2 1.5 0.4 0.4 0.3 0.3 0.2 0.7 0.1 0.6 0 0.6 0.3 0.6-0.3 0.3-0.2 0.1-0.2 0-0.3-0.3-0.5-0.1-0.6 0.1-0.5 0.3 0.8 0.5 0 0.5-0.4 0.7-0.4 0.9 1.1 0.1 0.5 0.7 0.3 0.9 0.5 1 0.8 2.7 0.8 1.3 1-0.3 0.3-0.8-0.3-0.5-0.8-0.6-0.3-2.5 0.2-1 0.6-1.1 0.7-0.6 0.8 0.2 0.3 0 0.5 0.6 0.6 1.1 0.9 2.5 0.5-0.2 0.2-0.1 0.4 0.7 0.7-0.1 0.8-0.4 0.9-0.2 3.8-0.4 2.3-1.1 0.7-0.2 0.6-0.6 0.3-0.1 0.5 0 0.4 0.2 0.5 0.1 0.5-0.3 0.1 0.2 0.2-0.2 1.3 0.6 1.1-0.7 1.2-1.2 1.3-0.8-0.4-0.4-0.2 0.1-0.4 0.3-0.3-0.5-0.9 0.5-1.6-0.2-0.4 0.2-1.2-0.6-1.3 0-3 1.3-1 0.5 0.4-0.7-0.8-0.6-1.4-2.3-0.7-0.4-1.2-0.4-0.4-0.3-1.1-0.8-0.6-1 0.7 0.7 0.9 0.6 1.3 0.8 0.7 0-0.6-0.7-0.6-0.6-0.6-0.4-0.8-0.4 0.2-0.7 0.3-1.5 0.2-0.8-0.7-0.6-0.5 0.2-0.5 0.4-1 0 0.2-0.6 0.2-0.2-1-0.4-0.6-0.1-0.7 0.1 0.1-0.7 0.1-0.2-0.6-0.1-0.5-0.2-0.8-0.6 0.3-0.4 0.4-0.3 0.4-0.1 0.5 0-0.9-1.5-0.4-0.8-0.3-1.1 0.9-0.6 2.4-0.5 1.4-1 0.1 0.3 0.1 0.1 0.1 0 0.5 0.1 0.5 0 1.1 0.5 0.6 0.2 0.8 0 0.4-0.4 0.4-0.3 0.4-0.2 0.4 0.5 0.1-0.5 0-0.5-0.1-0.6-0.3 0.4-1-1.7-0.3-0.4 1.9-0.8 0.3 1.3 0.8 0.1 0.5-0.7-0.6-1.6 0.8-0.2 0.7-0.4 0.6-0.5 0.5-0.5 0.9 0.6 1-0.6 0.4-1-1-0.3 0.8-1.6 0-0.7-0.8-0.6-0.8 0.7-0.6 0.4-0.5 0.1-0.9 0-0.5-0.8-0.3-0.2-0.5 0.2-0.4 0.3-0.4 0-0.4-0.5-0.6 0.5-1.6 0.9-0.6 0.2-0.5-0.2-0.8-1.2-0.7-0.2-0.9-0.6-0.4-1.4 0.1-1.6 0.7-1 0-0.4-0.2-0.8 0 0.6-0.8 1.1-0.8 1.2-0.7 0.9-0.2 0.5-0.6-0.4-1.1-1.1-1.9-1.3-1.7-0.7-0.5-1.5-0.8-0.3-0.2-1-0.7-0.6-0.8 0-0.6-0.3-1.2-0.3-1.2-0.3-1-0.8-0.4-2.3 0.2-1.2-0.1-0.9-0.4 0.5-0.5 0.2-1.3 0.4-0.6 0.6-0.2 0.4 0.2 0 0.4-0.9 0.3 0 0.3 0.6 0 0.4 0.2 0.4 0.3 0.3 0.4-0.3-0.9 0.3-0.5 0.5-0.3 0.5-0.4 0.8-1.2 5-3.9-0.2-0.1 0-0.4 0.1-0.4 0-0.3-0.1-0.6 1.7-0.1 0.6-0.2 0.6-0.5-0.5-0.9 0.8-0.6 2.7-0.9 0-0.2 0.1-0.7 0.6-2.3 0-1.3-0.3-0.8-0.8-0.5-1.3-0.1-1.1 0.4-0.9 0.9-0.9 0.4-1.2-0.9-6.7 1.2-10 1.9-1 0.4-0.5 0.5-0.5 0-2.1 1.2-0.5 0-2.5-0.5-0.5 0.1-0.7 0.3-0.5 0.1-0.4 0.5-0.1 0.3-0.3-0.2-0.5-0.4-3.8 1-1.9 0-1.8-1-0.2-1.3 1.2-3.2 0.7-3.1 1.8-1.7 0.4-1.4 0.3-3.4-0.2-0.7-0.9-1.7-0.2-0.8 0.1-0.6 0.2-0.1 0.2-0.4 0-1.4 0.2-1.7-0.2-0.5-0.7-0.2 0.3-0.7 0.7-3.1-0.3-1.3 0-0.5 0.1-0.6 0.4-0.8 0.1-0.5 0.2-0.6 1-1.7 0.4-0.5 2.6 0.9 0.7-0.5 1.6-0.7 0.5-0.3 2-2.1 0.4-0.7 0.2-0.5 0-0.8 0.2-0.4 0.6 0 0.2-0.1 0.3-0.8 0.2-1.2 0-1.1-0.3-1 0.3-0.9 0.3 0 0.7 0 0.6-0.1 1.2-0.6 1.6-0.5 0.9-0.7 2.1-2.8 0.4-0.3 0.5-0.1 0.6-0.4 0.6-0.5 5.1-6.2 1-0.8 1.9-0.1 4.1 0.3 1.7-0.4 0.5 0.2 1.2 0.7 2.7 0.2 1.1-0.2 1.3-1.1 1.2-1.5 1.4-1.2 2.2-0.1 1.6 0.4 1.9 0 1-0.2 1.6-1 0.8-0.1 0.7 0.7 0.5 0.9 0.7 1.9-0.6 0.4-0.3 0-0.3-0.3-0.4 0.2 2.1 2.3 2.6 1.7 2.8 1.3 3.4 0.8 1.3 0 0.5-0.1 1.7-1.1 0.7-0.2 1.4 0.3 1.1 0.5 1.1 0.3 1.2-0.7 0.9 0.5 1.5 0.1 1.2-0.3 1.2-1.7 2.5-1.4 0.8-1-0.9-0.1-2.4-0.8-0.7 0.4-0.4 0-0.2-0.6-0.1-0.6-0.2-0.2-0.3 0-0.3-0.3-0.3-0.5-0.2-0.4 0-0.8-0.1-0.4-0.4-0.1-0.4 0-0.4-0.1-1.5-1.6-0.5-0.6 0-0.4 0.6-0.2 0.5-0.4 0.7-0.9 0.5-0.2 0.5 0.2 0.4 0.1 0.4-0.8 0.9 1.2 0.1 0.2 0.4 0.1 0.2-0.2 0.1-0.2 0.4-0.2 7.9 1.3 2.1 0.7 1 1.1-0.9 1.4-4.1 2.1-1.2 1.1 0.2 1.6 1.7 0.5 3.9-0.4 4-1.5 11.2-0.4 2.5 0.4 4.1-0.2-0.5 0.1-0.4 0.3-0.3 0.3-0.1 0.6 1.9-0.7 2.2-0.1 2.3 0.6 2.1 1.1 0.3-0.4 0.2 0.1 0.1 0.2 0.4 0.1 0.4-0.2 0.5-0.5 0.4-0.2 2.7-0.5 0.7-0.6 0.7-0.4 0.9 0.2 1.6 0.5 1.5 0.1 1.3 0.3 0.7 0.3 1.1 0.7 0.8 0.3 0.8 0.1 3.7-0.1 0.9-0.2 0.6-0.5 0.4-0.8 0.4-1.7 0.4-0.7 0.6 0.3 0.8-0.1 0.8-0.2 0.7-0.4-0.8-1.1-1.1-0.9-1.1-0.7-1.1-0.3-2.6 0-0.4 0.2-1 0.9-0.5 0.2-2.5-0.6-4.2-2.7-2.6-0.6 0.9-1.9 1.6-1.1 3.4-1.3 1.4-0.9 2-2.1 0.8-0.3 14-1.3 2-0.7 1.9-1.1 1-0.8 0.3 0 0.4 0.3 0.3 0.6 0.5 0.4 0.6-0.3 0.4-0.3 0.6-0.2 0.5-0.3 0.2-0.5 0.5-0.4 0.5-0.2 0.5-0.1 0.5 0.1 0.8 0.4 0.7 0.7 0.3 1.2 0.5 0 9.2-2.1 5.4-0.3 1.7 0.8 1 0 0.7-1.1-0.5-1.5-1.8-0.3-3.9 0.5-0.3 0.1-0.4 0.2-0.6 0-0.5-0.3-1-0.8-0.7-0.2-1.7-0.6-1-0.1-11.2 0.5-0.9 0.3-0.8 0.6-0.8 0.3-0.9-0.4-0.4-0.5-0.2-0.6-0.3-0.4-0.5-0.2 0.2-0.1 0.2-0.1-0.2-0.6-0.3-0.4-0.5-0.2-0.2 0.3-0.5-0.3-0.4 0.3-0.5 0.2-1.3 0.3 0.5 0 0.3-0.3 0.1-0.4 0-0.6 0.5 0.3 0.2 0.1 0.1 0 0.2 0-0.5-0.9-1-1.1-0.4-0.4-0.6-0.4-1 0.2-0.9-0.9-2.7-1.3-1-0.8-1-1.2-0.9-0.8-2.7-1.5 0.1 0 0-0.1 0.1-0.2-0.6-0.3-0.2-0.6-0.2-0.9-0.3-0.8 0.8-0.5 1-1.1 0.8-1.3 0.6-2.4 0.6-0.9 0.1-0.8-1-0.7 1.1-1.7 1.8-2 1.9-1.4 1.4 0.3 0.5-0.7 0.7-0.1 8.9 1.7 9.5 2.2 12.6 1.9 12 0.4 1.3-0.2 0.7-0.3 1.2-0.8 0.6-0.2 0.4-0.4 0.4-0.7 0.3-0.5 0.4 0.3 0.5-0.5 0.6-1 0.5-0.3 0.6 0.5 2 0.5 1.6 1.2 15.6 3.8 1.6 1.4 0.7 0.4 4.1 0.8 12.2-0.3 1.2-0.7 0.6 0.1 1 0.3 0.5 0 2-0.4 0.4 0.3 0.3 0 0.3-0.1 0.1-0.3 0.3-0.2 2-0.8 1.5-1 2.7-2.6 0.6-0.9 0.4-0.8 0.2-1 0.1-1.4 0.4-1.3 0.1-0.8-0.9-0.6-0.2-0.5 0.5-0.8 1.1-0.4 2.2-0.2 0.8-1.2 0.5-0.1 7.2-2.8 10.1-6.8 5.8-2.8 1.7-1.4 4.5-1.5 1.4-0.8 0.7-1.6 3.1-3.5 0.7-1.4 1.6-0.5 2.6-0.1 0.4-0.2 0.5-0.3 0.2-0.3 0.2-0.1 0.3 0.1 0.4 0.6 0.8-0.4 1-1.2 0.7-0.6 3.3-1.7 0.6-0.3 0.7-0.1 0.7 0.3 0.6-0.9 1.1-0.8 1.2-0.3 1.2 0.5 0.7 0 2.9-1.1 0.7 0.1 1.4-0.1 1.4-0.4 0.8-0.5 0.5 0.3 3.4-0.8 1.7-0.8 2.1-1.5 7.5-2.5 7.6-4 1.7-0.1 3.5 0.6 5 0 1.1 0.2 2.4 0.9 10.1 1 0.9-0.3 1.3 0.5 6.2-0.5 15.6 2.2 5.4-1.6 1.8-0.1 0.7 0.2 1.4 0.7 1.6 0.6 6.3 0.4 2.5-0.3 2.5-0.8 0.8-0.4 1.7-1.4 1.8-1.1 1.4-1.8 1.1-2.1 0.3-1.9 0.6 0.2 1.4 0.3 0.6 0.4 0.3 0.8 0.5 0.5 0.4 0.4-0.3 0.5 0 0.4 1.8 1.4 1.1 0.5 1.4-0.1 0.5-0.3 0.8-0.8 0.5-0.2 0.7 0.1 0.4 0.3 1 0.9 0 0.4-2.5-0.3-1.2 0.2-1 0.8-0.5 0.9-0.4 1.4-0.2 1.5-0.1 1.2 0.3 1 1.3 2.4 1.4 1.9 2.6 2.1 0 0.5-0.7 0 0.3 0.8 0.5 1 0.6 0.9 1.4 0.7 1.4 1.7 0.7 0.6 2.8 1.1 2.1 0.4 0.8 0.5 1.5 1.4 1.7 1 2.1 0.7 2.2 0.3 2.1-0.2 1-0.4 1.8-1.1 2.9-0.5 5-2.2 1.1-0.3 1.9-1.6 1.1-0.3 0 0.5-0.3 0.3-0.4 0.4-0.5 0.2 0.1 0.9-0.9 2 0.2 1.1 0.4 0 0.1-1.6 0.4-1.4 0.6-1.1 0.7-0.8 0.5-0.4 0.3-0.1 2.8 2.7 0.4 0 3.5 4.7 0.7 1.9 0 2.5-0.4 1-0.1 2.1 0.2 1 0.5 1.1 2.1 2.6 1.2 0.9 1.6 3 0.7 0.6 2.4 1.3 1.4 0.3 0.2 0.5 0 0.7 0.1 0.7 0.4 0.3 0.6 0.2 0.5 0.3 0.4 0.7 0.3 0.3 0.5 0.1 0.8 0.2 0.5 0.3 0.8 0.4 1.2-0.3 2-1.1 2.5-2.3 0.4-0.6 0.7-1.1 0.1-0.4 0.3-1.3 0.7-0.5 0.6 0 0.8 0.3 1 0.2 4.1 0 3.8 1 7 3.5 1.4 1.3 0.8 2 0.1 2.8 0.3 1.1 0.8 0.4 1 0.3 1.8 1.1 0.9 0.4 6.1-0.1 1.7 0.5 1.1 1 0.5 0.3 1 0.3 1.2 0.1 0.8 0.3 1.1 1.3 0.8 0.6 2 0.7 0.2 0.3 1.1 1.2 0.9 0.4 1.9-0.2 0.8 0.2 0.6-0.3 0.4-0.3 0.3-0.5 0.6-1.6 0.6-1.1 0.7-1 0.8-0.8 0.9-0.6 0.4 1 0.8 0.6 0.9 0 0.8-0.7 0.3 0.4 1.2-0.2 0.1 3.9 0.8 1.1 2.5 1.2 0.5 0.7 0.8 1.4 1.9-0.8 2.2 0.3 5.8 2 2.8 0.4 1.9 0.7 1 0 2.1-0.6 0.9 0.2 2.1 1.9 1 0 1.8-0.6 1.8 0.5 1.2 0.2 0.5-0.5 3.6-0.2 0.7-0.5 1.8-1.7 0.6-0.4 1.5-0.5 0.6 0.1 0.8 1.1 0.3 0.4 0.5-0.3 0.9 0 0.5-0.1 0.3-0.3 0.4-0.4 0.5-0.4 0.6-0.2 0.9-1.2 1.1-0.4 3.3-0.7 0.8-0.5 0.7-0.7 0.9-0.3 5.5 0 3.8-0.9 1.2-1 0.6-0.1 1.5 0.1 0.9 0.3 1.5 1.3 1.1 0.1 0.8-0.2 1.2-0.9 1-0.1 2.5-1.6 0.2-0.3 0.6-0.2 3 0.8 0.7 0.6 1.2 1.7 2.8 2.4 1.8 1.1 1.9 0.4 0.9-0.4 1-0.4 1-0.2 1.2 1 0.6 0 1 0 0.4 0.1 2.9 2.3 0.8 0.4 0.9 0.2 0.8-0.6 3-1 1.1-0.2 2.8 2.6 1.3 0.9 2 0.4 0.8-0.1 1.4-0.6 1.7-0.6 1.1-0.8 2.2-0.6 7.7-5.2 1.7 0.8 1.4 0.1 1.3-0.4 1.5-0.9 1.8-1.6 0.6-0.1 1.5-0.2 0.7-0.3 0.6-0.4 2.8-3.8 3.4-2.5 0.7 0.2 2.1 0.7 1.2-0.2 1.8-1.3 0.7-0.3 1.1-0.4 1.1-0.5 0.9-0.7 1.8-2 1-0.7 1.2-0.3 1.3 0 0.8-0.3 4.5-3.7 1.2-0.4 1-0.6 1.7-0.2 0.6-0.2 0.9-0.7 0.7-1.1 0.5-1.4 0.2-1.4 0.5-0.3 2.7-2.5 0.7-1.2 5 2.2 0.7 0.1 1.4-0.1 1.2-0.6 0.1 0.3-0.1 0.5 0 0.5 0.2 0.4 0.6 0.2 1.4 0.2 0.6 0.2 1.9 1.7 0.6 0.3 0.4-0.3 1.9-1.6 1.5-2.1 0.7-0.5 1.9-0.8 3.4 1.3 1.7-0.5 0.7-0.1 0.7 0.1 0.7 0.4 1.4-0.5 0.8 0 0.6 0.5 0.8 0.7 1.2 0.1 2.3-0.1 8.3 3.2 0.5 0 1-0.7 1.4-2.2 1.1-1 0.5-1.1 0.4-2.6 0.5-1 0.9-0.8 0.9-0.4 2.4-0.2 6.7 0.6 0.9 0.4-0.4 0.6-0.1 0.6-0.2 0.6-0.4 0.4-1 0.8-0.4 0.7 1.3 0.7 0.9 1 0.9 0.3 1.1-1.4 0.7-0.4 0.3 0.4 0.3 0.8 0.4 0.7 0.3 0.3 1.4 0.4 0.3 0.3 0.2 0.2 0.5 0.2 0.3 0.4 1.4 2.7 0.7 0.8 3.5 2.4 2.3 2 1.5 0.7 1.4 0.2 0 0.3-0.6 0.9-0.7 0.6-2.6 1.3 1.3 0.4 1.1-0.1 0.9 0.1 1 1.1 1.1 2.8 0.7 0.5 4.4-1.2 1.3-0.1 1.5 0.4 1.3 0.8 1.3 1.2 0.7 1.5-0.5 1.6z"/>
    <!-- Şehir noktaları -->
    <circle class="map-city-dot" cx="195" cy="113" r="8" fill="#12c8bf" opacity="0.9"/><!-- İstanbul -->
    <circle class="map-city-dot" cx="400" cy="175" r="7" fill="#12c8bf" opacity="0.85"/><!-- Ankara -->
    <circle class="map-city-dot" cx="152" cy="220" r="6" fill="#3b82f6" opacity="0.8"/><!-- İzmir -->
    <circle class="map-city-dot" cx="233" cy="140" r="5" fill="#3b82f6" opacity="0.75"/><!-- Bursa -->
    <circle class="map-city-dot" cx="345" cy="280" r="5" fill="#64748b" opacity="0.7"/><!-- Antalya -->
    <circle class="map-city-dot" cx="460" cy="270" r="4.5" fill="#3b82f6" opacity="0.7"/><!-- Mersin -->
    <circle class="map-city-dot" cx="620" cy="93" r="4" fill="#64748b" opacity="0.7"/><!-- Trabzon -->
    <circle class="map-city-dot" cx="560" cy="230" r="5" fill="#3b82f6" opacity="0.7"/><!-- Gaziantep -->
    <circle class="map-city-dot" cx="490" cy="255" r="4.5" fill="#64748b" opacity="0.7"/><!-- Adana -->
    <circle class="map-city-dot" cx="400" cy="230" r="4" fill="#64748b" opacity="0.65"/><!-- Konya -->
    <circle class="map-city-dot" cx="610" cy="190" r="4" fill="#64748b" opacity="0.65"/><!-- Diyarbakır -->
    <circle class="map-city-dot" cx="490" cy="92" r="4" fill="#64748b" opacity="0.6"/><!-- Samsun -->
</svg>
